<svg width="3626" height="2778" viewBox="0 0 3626 2778" fill="none" xmlns="http://www.w3.org/2000/svg">
<path d="M3503.84 758.621L1594.96 2029.31" stroke="#231F20" stroke-width="13.4414" stroke-miterlimit="10"/>
<path d="M1579.3 1979.32L1534.74 2069.45L1635.02 2063L1579.3 1979.32Z" fill="#231F20"/>
<path d="M3129.7 1643.22L900.306 2667.52" stroke="#231F20" stroke-width="13.4414" stroke-miterlimit="10"/>
<path d="M892.635 2615.69L834.501 2697.68L934.64 2707.02L892.635 2615.69Z" fill="#231F20"/>
<path d="M120.898 2091.41L2594.59 2678.8" stroke="#231F20" stroke-width="13.4414" stroke-miterlimit="10"/>
<path d="M2568.66 2724.31L2664.96 2695.55L2591.91 2626.53L2568.66 2724.31Z" fill="#231F20"/>
<path d="M1250.45 131.596V2005.19" stroke="#231F20" stroke-width="13.4414" stroke-miterlimit="10"/>
<path d="M1200.19 1990.48L1250.46 2077.58L1300.73 1990.48H1200.19Z" fill="#231F20"/>
<path d="M2792.39 1531.79C2492.92 1097.97 2086.72 823.964 1758.75 656.686" stroke="#231F20" stroke-width="5.04053" stroke-miterlimit="10" stroke-dasharray="134.41 67.21"/>
<path d="M2808.85 1511.77L2812.88 1561.84L2767.52 1540.33L2808.85 1511.77Z" fill="#231F20"/>
<path d="M1776.69 637.926L1726.48 640.48L1753.84 682.686L1776.69 637.926Z" fill="#231F20"/>
<path d="M3204.5 2740.91C3184.01 2452.46 3121.77 2198.35 3031.24 1974.75" stroke="#231F20" stroke-width="5.04053" stroke-miterlimit="10" stroke-dasharray="134.41 67.21"/>
<path d="M3229.11 2731.84L3207.07 2777L3178.91 2735.4L3229.11 2731.84Z" fill="#231F20"/>
<path d="M3057.32 1972.26L3017.67 1941.34L3010.75 1991.14L3057.32 1972.26Z" fill="#231F20"/>
<path d="M1603.35 1671.18C1680.19 1671.18 1742.47 1608.9 1742.47 1532.06C1742.47 1455.23 1680.19 1392.95 1603.35 1392.95C1526.52 1392.95 1464.23 1455.23 1464.23 1532.06C1464.23 1608.9 1526.52 1671.18 1603.35 1671.18Z" fill="#231F20"/>
<path d="M1250.45 80.1108C1272.57 80.1108 1290.51 62.1773 1290.51 40.0554C1290.51 17.9334 1272.57 0 1250.45 0C1228.33 0 1210.4 17.9334 1210.4 40.0554C1210.4 62.1773 1228.33 80.1108 1250.45 80.1108Z" fill="#231F20"/>
<path d="M40.0554 2112.33C62.1774 2112.33 80.1108 2094.39 80.1108 2072.27C80.1108 2050.15 62.1774 2032.21 40.0554 2032.21C17.9334 2032.21 0 2050.15 0 2072.27C0 2094.39 17.9334 2112.33 40.0554 2112.33Z" fill="#231F20"/>
<path d="M3585.36 744.369C3607.48 744.369 3625.42 726.435 3625.42 704.313C3625.42 682.191 3607.48 664.258 3585.36 664.258C3563.24 664.258 3545.31 682.191 3545.31 704.313C3545.31 726.435 3563.24 744.369 3585.36 744.369Z" fill="#231F20"/>
<path d="M3223.46 1640.19C3245.59 1640.19 3263.52 1622.25 3263.52 1600.13C3263.52 1578.01 3245.59 1560.07 3223.46 1560.07C3201.34 1560.07 3183.41 1578.01 3183.41 1600.13C3183.41 1622.25 3201.34 1640.19 3223.46 1640.19Z" fill="#231F20"/>
</svg>
