<svg width="2690" height="3073" viewBox="0 0 2690 3073" fill="none" xmlns="http://www.w3.org/2000/svg">
<path d="M566.896 1625.49C612.336 1625.49 649.173 1588.65 649.173 1543.21C649.173 1497.77 612.336 1460.94 566.896 1460.94C521.456 1460.94 484.619 1497.77 484.619 1543.21C484.619 1588.65 521.456 1625.49 566.896 1625.49Z" fill="black"/>
<path d="M1122.06 1726.8L165.229 1925.31" stroke="black" stroke-width="13.3134" stroke-miterlimit="10"/>
<path d="M169.355 1873.59L95 1939.83L189.592 1971.11L169.355 1873.59Z" fill="black"/>
<path d="M1175.72 1745.03C1190.68 1745.03 1202.81 1732.9 1202.81 1717.94C1202.81 1702.98 1190.68 1690.85 1175.72 1690.85C1160.76 1690.85 1148.63 1702.98 1148.63 1717.94C1148.63 1732.9 1160.76 1745.03 1175.72 1745.03Z" fill="black"/>
<path d="M179.822 1293.87L535.423 1926.92" stroke="black" stroke-width="13.3134" stroke-miterlimit="10"/>
<path d="M484.881 1938.64L570.553 1989.36L571.684 1889.84L484.881 1938.64Z" fill="black"/>
<path d="M145.06 1259.18C160.022 1259.18 172.152 1247.05 172.152 1232.08C172.152 1217.12 160.022 1204.99 145.06 1204.99C130.097 1204.99 117.967 1217.12 117.967 1232.08C117.967 1247.05 130.097 1259.18 145.06 1259.18Z" fill="black"/>
<path d="M408.131 2036.03L606.7 2731.98" stroke="black" stroke-width="13.3134" stroke-miterlimit="10"/>
<path d="M554.793 2731.66L626.352 2800.89L650.583 2704.3L554.793 2731.66Z" fill="black"/>
<path d="M391.29 2004.13C406.253 2004.13 418.383 1992 418.383 1977.04C418.383 1962.08 406.253 1949.95 391.29 1949.95C376.327 1949.95 364.197 1962.08 364.197 1977.04C364.197 1992 376.327 2004.13 391.29 2004.13Z" fill="black"/>
<path d="M446.406 1436.11L89.8066 2754.53" stroke="black" stroke-width="13.3134" stroke-miterlimit="10"/>
<path d="M45.5469 2727.51L71.1086 2823.7L141.67 2753.47L45.5469 2727.51Z" fill="black"/>
<path d="M463.849 1398.65C478.812 1398.65 490.941 1386.52 490.941 1371.56C490.941 1356.59 478.812 1344.46 463.849 1344.46C448.886 1344.46 436.756 1356.59 436.756 1371.56C436.756 1386.52 448.886 1398.65 463.849 1398.65Z" fill="black"/>
<path d="M671.27 2619.67C931.28 2440.4 1105.55 2148.9 1121.26 1825.06" stroke="black" stroke-width="6.6567" stroke-miterlimit="10" stroke-dasharray="66.57 66.57"/>
<path d="M697.574 2641.5L631.34 2645.89L660.696 2586.31L697.574 2641.5Z" fill="black"/>
<path d="M1153.68 1835.92L1122.46 1777.34L1087.31 1833.66L1153.68 1835.92Z" fill="black"/>
<path d="M1345 2698.57C2083.95 2698.57 2682.99 2099.53 2682.99 1360.58C2682.99 621.623 2083.95 22.582 1345 22.582C606.041 22.582 7 621.623 7 1360.58C7 2099.53 606.041 2698.57 1345 2698.57Z" stroke="black" stroke-width="13.3134" stroke-miterlimit="10"/>
<path d="M1345 3048.03C2083.95 3048.03 2682.99 2448.99 2682.99 1710.03C2682.99 971.078 2083.95 372.037 1345 372.037C606.041 372.037 7 971.078 7 1710.03C7 2448.99 606.041 3048.03 1345 3048.03Z" stroke="black" stroke-width="13.3134" stroke-miterlimit="10"/>
<path d="M1329.55 3049.69V966.943" stroke="black" stroke-width="13.3134" stroke-miterlimit="10"/>
<path d="M1321.56 1247.86H999.047V967.409L1767.76 966.943L1764.03 2008.12L1330.82 2008.58" stroke="black" stroke-width="13.3134" stroke-miterlimit="10"/>
<path d="M1339.13 394.544C1352 394.544 1362.43 384.113 1362.43 371.246C1362.43 358.378 1352 347.947 1339.13 347.947C1326.27 347.947 1315.83 358.378 1315.83 371.246C1315.83 384.113 1326.27 394.544 1339.13 394.544Z" fill="black"/>
<path d="M1344.33 46.5969C1357.19 46.5969 1367.62 36.1658 1367.62 23.2984C1367.62 10.4311 1357.19 0 1344.33 0C1331.46 0 1321.03 10.4311 1321.03 23.2984C1321.03 36.1658 1331.46 46.5969 1344.33 46.5969Z" fill="black"/>
<path d="M1329.55 3073C1342.42 3073 1352.85 3062.57 1352.85 3049.7C1352.85 3036.83 1342.42 3026.4 1329.55 3026.4C1316.69 3026.4 1306.26 3036.83 1306.26 3049.7C1306.26 3062.57 1316.69 3073 1329.55 3073Z" fill="black"/>
<path d="M1329.43 2716.2C1342.3 2716.2 1352.73 2705.77 1352.73 2692.9C1352.73 2680.03 1342.3 2669.6 1329.43 2669.6C1316.56 2669.6 1306.13 2680.03 1306.13 2692.9C1306.13 2705.77 1316.56 2716.2 1329.43 2716.2Z" fill="black"/>
<path d="M818.65 2961.9C831.517 2961.9 841.948 2951.46 841.948 2938.6C841.948 2925.73 831.517 2915.3 818.65 2915.3C805.783 2915.3 795.352 2925.73 795.352 2938.6C795.352 2951.46 805.783 2961.9 818.65 2961.9Z" fill="black"/>
<path d="M594.453 1538.64C607.32 1538.64 617.751 1528.21 617.751 1515.34C617.751 1502.48 607.32 1492.04 594.453 1492.04C581.585 1492.04 571.154 1502.48 571.154 1515.34C571.154 1528.21 581.585 1538.64 594.453 1538.64Z" fill="black"/>
<path d="M1327.43 1271.1C1340.3 1271.1 1350.73 1260.67 1350.73 1247.8C1350.73 1234.94 1340.3 1224.51 1327.43 1224.51C1314.56 1224.51 1304.13 1234.94 1304.13 1247.8C1304.13 1260.67 1314.56 1271.1 1327.43 1271.1Z" fill="black"/>
<path d="M1329.55 966.968L1344.99 22.582" stroke="black" stroke-width="13.3134" stroke-miterlimit="10"/>
<path d="M1319.92 369.324H2238.81" stroke="black" stroke-width="13.3134" stroke-miterlimit="10"/>
<path d="M815.18 2943.73L1330.87 2008.59" stroke="black" stroke-width="13.3134" stroke-miterlimit="10"/>
<path d="M1343.26 366.857L611.428 1498.43L1011.89 1242.68L1340.07 368.522" stroke="black" stroke-width="13.3134" stroke-miterlimit="10"/>
<path d="M2243.31 365.898L1329.5 1999.5" stroke="black" stroke-width="13.3134" stroke-miterlimit="10"/>
</svg>
