<svg width="2433" height="4576" viewBox="0 0 2433 4576" fill="none" xmlns="http://www.w3.org/2000/svg">
<path d="M1241.07 795.392C1266.69 795.392 1287.47 774.617 1287.47 748.989C1287.47 723.361 1266.69 702.586 1241.07 702.586C1215.44 702.586 1194.66 723.361 1194.66 748.989C1194.66 774.617 1215.44 795.392 1241.07 795.392Z" fill="#010101"/>
<path d="M2060.16 3351.67L1718.37 2935.9L2078.19 2516.95L2419.99 2932.72L2060.16 3351.67Z" stroke="black" stroke-width="3.31451" stroke-miterlimit="10"/>
<path d="M1916.32 3371.81L1574.53 2956.04L1934.35 2537.22L2276.14 2952.99L1916.32 3371.81Z" stroke="black" stroke-width="3.31451" stroke-miterlimit="10"/>
<path d="M1916.32 3371.82L2276.15 2952.99L2420 2932.71L2060.17 3351.66L1916.32 3371.82Z" stroke="black" stroke-width="3.31451" stroke-miterlimit="10"/>
<path d="M2276.14 2953L1934.34 2537.23L2078.19 2516.95L2419.99 2932.72L2276.14 2953Z" stroke="black" stroke-width="3.31451" stroke-miterlimit="10"/>
<path d="M1934.35 2537.23L2078.2 2516.95L1718.37 2935.9L1574.53 2956.05L1934.35 2537.23Z" stroke="black" stroke-width="3.31451" stroke-miterlimit="10"/>
<path d="M1574.53 2956.04L1718.37 2935.89L2060.17 3351.66L1916.32 3371.82L1574.53 2956.04Z" stroke="black" stroke-width="3.31451" stroke-miterlimit="10"/>
<path d="M2060.16 3362.13L1711.74 2937.88L1709.62 2935.36L2078.19 2506.33L2426.62 2930.59L2428.6 2932.97L2060.16 3362.13ZM2078.19 2516.93L1718.37 2935.89L2060.16 3351.66L2419.99 2933.24L2078.19 2516.93Z" stroke="black" stroke-width="3.31451" stroke-miterlimit="10"/>
<path d="M1934.35 2537.21L1574.52 2956.03L1916.32 3371.81L2276.14 2952.99L1934.35 2537.21M1916.18 3382.28L1567.76 2958.02L1565.77 2955.5L1934.35 2526.47L2282.77 2950.73L2284.76 2953.12L1916.18 3382.28Z" stroke="black" stroke-width="3.31451" stroke-miterlimit="10"/>
<path d="M1916.18 3382.28L2284.75 2953.12L2428.74 2932.97L2060.16 3362.13L1916.18 3382.28Z" stroke="black" stroke-width="3.31451" stroke-miterlimit="10"/>
<path d="M2284.76 2953.12L2282.77 2950.74L2426.62 2930.58L2428.74 2932.97L2284.76 2953.12Z" stroke="black" stroke-width="3.31451" stroke-miterlimit="10"/>
<path d="M2282.76 2950.73L1934.34 2526.87L2078.19 2506.59L2426.61 2930.58L2282.76 2950.73Z" stroke="black" stroke-width="3.31451" stroke-miterlimit="10"/>
<path d="M1934.35 2526.87L2078.2 2506.59L1709.62 2935.62L1565.77 2955.9L1934.35 2526.87Z" stroke="black" stroke-width="3.31451" stroke-miterlimit="10"/>
<path d="M1565.77 2955.92L1709.62 2935.63L1711.74 2938.15L1567.76 2958.44L1565.77 2955.92Z" stroke="black" stroke-width="3.31451" stroke-miterlimit="10"/>
<path d="M1567.77 2958.43L1711.75 2938.14L2060.17 3362.14L1916.19 3382.29L1567.77 2958.43Z" stroke="black" stroke-width="3.31451" stroke-miterlimit="10"/>
<path d="M1934.34 2537.23L2078.19 2516.95L2419.99 2932.72L2276.14 2953L1934.34 2537.23Z" stroke="black" stroke-width="3.31451" stroke-miterlimit="10"/>
<path d="M2276.15 2952.99L2420 2932.71L2060.17 3351.66L1916.32 3371.82L2276.15 2952.99Z" stroke="black" stroke-width="3.31451" stroke-miterlimit="10"/>
<path d="M1916.32 3371.82L1574.53 2956.04L1718.37 2935.89L2060.17 3351.66L1916.32 3371.82Z" stroke="black" stroke-width="3.31451" stroke-miterlimit="10"/>
<path d="M1574.53 2956.05L1934.35 2537.23L2078.2 2516.95L1718.37 2935.9L1574.53 2956.05Z" stroke="black" stroke-width="3.31451" stroke-miterlimit="10"/>
<path d="M1241.21 4470.11L2417.46 2932.84" stroke="#231F20" stroke-width="7.02676" stroke-miterlimit="10"/>
<path d="M1999.83 3059.18C2065.73 3059.18 2119.15 3005.76 2119.15 2939.86C2119.15 2873.96 2065.73 2820.53 1999.83 2820.53C1933.93 2820.53 1880.51 2873.96 1880.51 2939.86C1880.51 3005.76 1933.93 3059.18 1999.83 3059.18Z" stroke="#231F20" stroke-width="6.62902" stroke-miterlimit="10" stroke-dasharray="62.45 62.45"/>
<path d="M1241.21 4456.72L2069.97 2505.14" stroke="#231F20" stroke-width="7.02676" stroke-miterlimit="10"/>
<path d="M1241.21 4456.71L1936.2 2531.91" stroke="#231F20" stroke-width="7.02676" stroke-miterlimit="10"/>
<path d="M1241.21 4456.71L2283.82 2946.22" stroke="#231F20" stroke-width="7.02676" stroke-miterlimit="10"/>
<path d="M1241.21 4456.71L1909.55 3373.93" stroke="#231F20" stroke-width="7.02676" stroke-miterlimit="10"/>
<path d="M1241.21 4456.71L1575.31 2946.22" stroke="#231F20" stroke-width="7.02676" stroke-miterlimit="10"/>
<path d="M1241.21 4456.71L1722.35 2946.22" stroke="#231F20" stroke-width="7.02676" stroke-miterlimit="10"/>
<path d="M1244.51 114.439L1235.63 4471.43" stroke="#231F20" stroke-width="13.258" stroke-miterlimit="10"/>
<path d="M1326.32 4537.44C1309.63 4554.12 1288.37 4565.48 1265.23 4570.09C1242.08 4574.69 1218.09 4572.32 1196.29 4563.29C1174.49 4554.26 1155.86 4538.96 1142.75 4519.34C1129.64 4499.72 1122.64 4476.65 1122.64 4453.05C1122.64 4429.45 1129.64 4406.39 1142.75 4386.76C1155.86 4367.14 1174.49 4351.85 1196.29 4342.82C1218.09 4333.78 1242.08 4331.42 1265.23 4336.02C1288.37 4340.62 1309.63 4351.98 1326.32 4368.67C1337.41 4379.75 1346.2 4392.9 1352.2 4407.38C1358.2 4421.86 1361.28 4437.38 1361.28 4453.05C1361.28 4468.73 1358.2 4484.25 1352.2 4498.72C1346.2 4513.2 1337.41 4526.36 1326.32 4537.44V4537.44Z" stroke="#231F20" stroke-width="6.62902" stroke-miterlimit="10" stroke-dasharray="62.45 62.45"/>
<path d="M1245.71 116.307L703.857 1459.48" stroke="#231F20" stroke-width="7.02676" stroke-miterlimit="10"/>
<path d="M1238.28 124.127L154.971 1488.78" stroke="#231F20" stroke-width="7.02676" stroke-miterlimit="10"/>
<path d="M1240.01 121.613L328.787 1098.07" stroke="#231F20" stroke-width="7.02676" stroke-miterlimit="10"/>
<path d="M1239.08 129.305L848.635 1438.54" stroke="#231F20" stroke-width="7.02676" stroke-miterlimit="10"/>
<path d="M1239.62 130.238L529.121 1853.78" stroke="#231F20" stroke-width="7.02676" stroke-miterlimit="10"/>
<path d="M1234.18 131.943L387.258 1872.86" stroke="#231F20" stroke-width="7.02676" stroke-miterlimit="10"/>
<path d="M1245.72 116.307L13.6504 1510.92" stroke="#231F20" stroke-width="7.02676" stroke-miterlimit="10"/>
<path d="M531.765 1846.21L157.623 1490.76L470.91 1082.15L845.052 1437.46L531.765 1846.21Z" stroke="black" stroke-width="3.31451" stroke-miterlimit="10"/>
<path d="M387.789 1866.35L13.7793 1510.91L327.067 1102.29L701.076 1457.74L387.789 1866.35Z" stroke="black" stroke-width="3.31451" stroke-miterlimit="10"/>
<path d="M387.789 1866.37L701.076 1457.76L845.059 1437.47L531.771 1846.22L387.789 1866.37Z" stroke="black" stroke-width="3.31451" stroke-miterlimit="10"/>
<path d="M701.076 1457.75L327.066 1102.3L470.916 1082.15L845.058 1437.46L701.076 1457.75Z" stroke="black" stroke-width="3.31451" stroke-miterlimit="10"/>
<path d="M327.067 1102.3L470.916 1082.15L157.629 1490.76L13.7793 1510.91L327.067 1102.3Z" stroke="black" stroke-width="3.31451" stroke-miterlimit="10"/>
<path d="M13.7793 1510.92L157.629 1490.77L531.771 1846.22L387.789 1866.37L13.7793 1510.92Z" stroke="black" stroke-width="3.31451" stroke-miterlimit="10"/>
<path d="M470.915 1082.15L157.628 1490.76L531.77 1846.08L845.057 1437.33L470.915 1082.02M532.565 1856.15L148.082 1491.43L469.589 1072.07L853.41 1436.8L532.565 1856.15Z" stroke="black" stroke-width="3.31451" stroke-miterlimit="10"/>
<path d="M327.329 1102.3L13.7767 1510.91L387.786 1866.36L701.073 1457.74L327.064 1102.3M388.979 1876.43L4.49609 1511.57L326.004 1092.35L709.824 1457.08L388.979 1876.43Z" stroke="black" stroke-width="3.31451" stroke-miterlimit="10"/>
<path d="M388.721 1876.44L710.096 1457.08L853.945 1436.8L532.57 1856.15L388.721 1876.44Z" stroke="black" stroke-width="3.31451" stroke-miterlimit="10"/>
<path d="M710.084 1457.09L326.264 1092.36L470.113 1072.07L853.934 1436.8L710.084 1457.09Z" stroke="black" stroke-width="3.31451" stroke-miterlimit="10"/>
<path d="M326.263 1092.36L470.113 1072.07L148.606 1491.43L4.75586 1511.58L326.263 1092.36Z" stroke="black" stroke-width="3.31451" stroke-miterlimit="10"/>
<path d="M4.75586 1511.59L148.606 1491.44L532.558 1856.17L388.709 1876.45L4.75586 1511.59Z" stroke="black" stroke-width="3.31451" stroke-miterlimit="10"/>
<path d="M327.066 1102.3L470.916 1082.15L845.058 1437.46L701.076 1457.75L327.066 1102.3Z" stroke="black" stroke-width="3.31451" stroke-miterlimit="10"/>
<path d="M701.076 1457.76L845.059 1437.47L531.771 1846.22L387.789 1866.37L701.076 1457.76Z" stroke="black" stroke-width="3.31451" stroke-miterlimit="10"/>
<path d="M387.789 1866.37L13.7793 1510.92L157.629 1490.77L531.771 1846.22L387.789 1866.37Z" stroke="black" stroke-width="3.31451" stroke-miterlimit="10"/>
<path d="M13.7793 1510.91L327.067 1102.3L470.916 1082.15L157.629 1490.76L13.7793 1510.91Z" stroke="black" stroke-width="3.31451" stroke-miterlimit="10"/>
<path d="M1242 242.645C1307.9 242.645 1361.32 189.222 1361.32 123.322C1361.32 57.4224 1307.9 4 1242 4C1176.1 4 1122.68 57.4224 1122.68 123.322C1122.68 189.222 1176.1 242.645 1242 242.645Z" stroke="#231F20" stroke-width="6.62902" stroke-miterlimit="10" stroke-dasharray="62.45 62.45"/>
<path d="M435.383 1600.82C501.283 1600.82 554.705 1547.4 554.705 1481.5C554.705 1415.6 501.283 1362.17 435.383 1362.17C369.483 1362.17 316.061 1415.6 316.061 1481.5C316.061 1547.4 369.483 1600.82 435.383 1600.82Z" stroke="#231F20" stroke-width="6.62902" stroke-miterlimit="10" stroke-dasharray="62.45 62.45"/>
</svg>
