<svg width="3088" height="3124" viewBox="0 0 3088 3124" fill="none" xmlns="http://www.w3.org/2000/svg">
<path d="M466.063 2680.71C488.216 2680.71 506.174 2662.75 506.174 2640.6C506.174 2618.44 488.216 2600.49 466.063 2600.49C443.91 2600.49 425.952 2618.44 425.952 2640.6C425.952 2662.75 443.91 2680.71 466.063 2680.71Z" fill="black" stroke="black" stroke-width="6.73001" stroke-miterlimit="10"/>
<path d="M1162.34 2940.33C1184.05 2940.33 1201.64 2922.74 1201.64 2901.03C1201.64 2879.33 1184.05 2861.73 1162.34 2861.73C1140.63 2861.73 1123.04 2879.33 1123.04 2901.03C1123.04 2922.74 1140.63 2940.33 1162.34 2940.33Z" fill="black" stroke="black" stroke-width="6.73001" stroke-miterlimit="10"/>
<path d="M1522.85 3052.52C1372.03 2846.58 493.692 1548.83 1441.14 457.896" stroke="black" stroke-width="13.46" stroke-miterlimit="10"/>
<path d="M466.728 2639.91C320.945 2497.02 205.182 2326.44 126.235 2138.18C47.2887 1949.93 6.75057 1747.8 7.00115 1543.66C7.00115 694.807 695.145 7 1544 7C2392.86 7 3081 694.807 3081 1543.66C3081 2380.61 2411.97 3061.35 1579.53 3080.26" stroke="black" stroke-width="13.46" stroke-miterlimit="10"/>
<path d="M466.729 2639.91L2595.9 423.109" stroke="black" stroke-width="13.46" stroke-miterlimit="10"/>
<path d="M2595.89 423.109L1163.07 2899.69" stroke="black" stroke-width="13.46" stroke-miterlimit="10"/>
<path d="M1441.72 497.742C1464.17 497.742 1482.37 479.543 1482.37 457.093C1482.37 434.643 1464.17 416.443 1441.72 416.443C1419.27 416.443 1401.07 434.643 1401.07 457.093C1401.07 479.543 1419.27 497.742 1441.72 497.742Z" fill="black" stroke="black" stroke-width="6.73001" stroke-miterlimit="10"/>
<path d="M1537.42 1565.27C1559.57 1565.27 1577.53 1547.31 1577.53 1525.16C1577.53 1503.01 1559.57 1485.05 1537.42 1485.05C1515.26 1485.05 1497.3 1503.01 1497.3 1525.16C1497.3 1547.31 1515.26 1565.27 1537.42 1565.27Z" fill="black" stroke="black" stroke-width="6.73001" stroke-miterlimit="10"/>
<path d="M2595.88 463.884C2618.41 463.884 2636.67 445.625 2636.67 423.1C2636.67 400.576 2618.41 382.316 2595.88 382.316C2573.36 382.316 2555.1 400.576 2555.1 423.1C2555.1 445.625 2573.36 463.884 2595.88 463.884Z" fill="black" stroke="black" stroke-width="6.73001" stroke-miterlimit="10"/>
<path d="M466.055 2640.58C466.055 1661.43 1280.05 1600.19 1537.4 1525.15C2043.64 1377.63 2555.12 1259.18 2595.9 423.109" stroke="black" stroke-width="13.46" stroke-miterlimit="10"/>
<path d="M1163.89 2900.92C946.445 2350.4 1531.01 1661.92 1922.83 1586.41C2485.87 1477.79 2716.98 767.099 2595.84 422.994" stroke="black" stroke-width="13.46" stroke-miterlimit="10"/>
<path d="M1498.57 729.923C1649.2 698.508 1745.85 550.925 1714.44 400.287C1683.02 249.649 1535.44 153 1384.8 184.415C1234.17 215.83 1137.52 363.413 1168.93 514.051C1200.35 664.689 1347.93 761.338 1498.57 729.923Z" stroke="black" stroke-width="6.73001" stroke-miterlimit="10" stroke-dasharray="20.32 20.32"/>
<path d="M1543.99 3119.96C1565.7 3119.96 1583.29 3102.37 1583.29 3080.66C1583.29 3058.95 1565.7 3041.36 1543.99 3041.36C1522.28 3041.36 1504.69 3058.95 1504.69 3080.66C1504.69 3102.37 1522.28 3119.96 1543.99 3119.96Z" stroke="black" stroke-width="6.73001" stroke-miterlimit="10"/>
<path d="M1162.34 2900.9C853.972 2409.21 1009.97 1686.34 1544 1518.29" stroke="black" stroke-width="13.46" stroke-miterlimit="10"/>
</svg>
